# xmcd
#
# Track frame offsets:
#	150
#	18131
#	35606
#	55423
#	74380
#	95468
#	111553
#	129583
#	145080
#	164905
#	182555
#	195640
#	212402
#	227731
#	244065
#	265082
#	281384
#	297244
#	308525
#	325813
#
# Disc length: 4588 seconds
#
# Revision: 0
# Processed by: cddbd v1.5.2PL0 Copyright (c) Steve Scherf et al.
# Submitted via: dBpowerAMP V4.0
#
DISCID=2611ea14
DTITLE=Diversos - 5x4 sertanejo
DYEAR=1900
DGENRE=Country
TTITLE0=Vai dar namoro
TTITLE1=Pra mudar minha vida
TTITLE2=Eu sei que te perdi
TTITLE3=Na batida do seu coração
TTITLE4=O nosso amor
TTITLE5=Transito parado
TTITLE6=Galera felicidade
TTITLE7=Brincadeira tem hora
TTITLE8=A gente não consegue amar
TTITLE9=A outra
TTITLE10=Pra lá que eu vou
TTITLE11=Toneladas de paixão
TTITLE12=Escorpião
TTITLE13=Me faz perder o medo
TTITLE14=Tempestade de paixão
TTITLE15=Doce desejo
TTITLE16=Nosso amor é ouro
TTITLE17=O amor se vai
TTITLE18=Das 6:00 da tarde as 6:00 da manhã
TTITLE19=Acorda pra vida
EXTD=
EXTT0=
EXTT1=
EXTT2=
EXTT3=
EXTT4=
EXTT5=
EXTT6=
EXTT7=
EXTT8=
EXTT9=
EXTT10=
EXTT11=
EXTT12=
EXTT13=
EXTT14=
EXTT15=
EXTT16=
EXTT17=
EXTT18=
EXTT19=
PLAYORDER=
